C:UsersJoelContactsDark Blue 1x07 [AC3 + Spanish].mkv
   General
      Complete name : C:UsersJoelContactsDark Blue 1x07 [AC3 + 

Spanish].mkv
      Format : Matroska
      File size : 443 MiB
      Duration : 40mn 44s
      Overall bit rate : 1 521 Kbps
      Encoded date : UTC 2010-05-24 22:36:09
      Writing application : VirtualDubMod 1.5.10.2 (build 2540/release)
      Writing library : libebml-0.7.5 & libmatroska-0.7.7
   Video #1
      ID : 1
      Format : MPEG-4 Visual
      Format profile : AdvancedSimple@L5
      Format settings, BVOP : Yes
      Format settings, QPel : No
      Format settings, GMC : No warppoints
      Format settings, Matrix : Default (H.263)
      Codec ID : XVID
      Codec ID/Hint : XviD
      Duration : 40mn 44s
      Bit rate : 1 043 Kbps
      Width : 624 pixels
      Height : 352 pixels
      Display aspect ratio : 16:9
      Frame rate : 25.000 fps
      Resolution : 24 bits
      Colorimetry : 4:2:0
      Scan type : Progressive
      Bits/(Pixel*Frame) : 0.190
      Stream size : 304 MiB (69%)
      Writing library : XviD 1.2.1 (UTC 2008-12-04)
   Audio #2
      ID : 2
      Format : AC-3
      Format/Info : Audio Coding 3
      Codec ID : A_AC3
      Duration : 40mn 44s
      Bit rate mode : Constant
      Bit rate : 448 Kbps
      Channel(s) : 2 channels
      Channel positions : L R
      Sampling rate : 48.0 KHz
      Stream size : 131 MiB (29%)